<?xml version="1.0" standalone="no"?>
<!DOCTYPE svg PUBLIC "-//W3C//DTD SVG 20010904//EN"
 "http://www.w3.org/TR/2001/REC-SVG-20010904/DTD/svg10.dtd">
<svg version="1.0" xmlns="http://www.w3.org/2000/svg"
 width="934.000000pt" height="323.000000pt" viewBox="0 0 934.000000 323.000000"
 preserveAspectRatio="xMidYMid meet">

<g transform="translate(0.000000,323.000000) scale(0.100000,-0.100000)"
fill="#000000" stroke="none">
<path d="M2693 3065 c-15 -19 -149 -222 -298 -452 -148 -230 -293 -453 -321
-496 l-51 -79 -103 159 c-57 87 -162 248 -233 358 -71 110 -139 210 -150 223
l-20 22 -694 0 -693 0 0 -175 0 -175 466 -2 466 -3 -291 -333 c-160 -183 -291
-338 -291 -346 0 -10 75 -184 84 -193 1 -1 29 6 62 17 237 73 469 -3 549 -182
39 -87 46 -209 17 -305 -48 -157 -194 -253 -386 -253 -109 0 -195 26 -273 84
-62 45 -132 138 -153 202 -9 27 -16 34 -29 29 -9 -4 -83 -31 -166 -60 -82 -29
-158 -56 -167 -60 -23 -9 -17 -37 27 -130 104 -223 329 -387 599 -434 75 -14
242 -14 320 -1 33 5 61 8 63 6 2 -2 -46 -81 -107 -175 -60 -95 -110 -174 -110
-176 0 -3 103 -5 229 -5 203 0 231 2 249 18 20 16 145 207 538 824 104 164
192 298 196 298 4 0 23 -24 41 -52 330 -511 451 -695 465 -705 18 -15 438 -19
459 -5 9 6 -8 40 -60 120 -135 209 -314 486 -486 750 -94 145 -171 272 -171
283 0 11 125 212 278 447 440 675 596 914 621 955 l23 37 -235 0 -236 0 -28
-35z"/>
<path d="M4060 1660 l0 -530 50 0 50 0 0 233 c0 259 10 326 58 387 94 119 308
112 385 -12 38 -62 47 -131 47 -390 l0 -218 45 0 45 0 0 268 c0 300 -6 339
-63 414 -50 66 -124 101 -223 106 -123 7 -211 -29 -270 -109 l-24 -33 0 207 0
207 -50 0 -50 0 0 -530z"/>
<path d="M3403 1905 c-106 -33 -195 -114 -235 -214 -32 -82 -32 -261 1 -343
31 -81 104 -158 183 -194 57 -26 73 -29 168 -29 93 0 112 3 161 26 74 35 132
89 163 152 36 72 35 77 -23 77 -48 0 -49 -1 -73 -47 -32 -63 -93 -108 -164
-123 -136 -28 -261 32 -315 153 -33 73 -34 239 -3 308 49 107 134 161 254 161
108 0 191 -46 230 -127 21 -44 23 -45 71 -45 56 0 58 5 30 66 -23 51 -74 110
-123 140 -79 50 -232 69 -325 39z"/>
<path d="M5176 1904 c-101 -31 -188 -113 -228 -213 -18 -46 -22 -75 -22 -171
0 -96 4 -125 22 -171 26 -64 87 -139 142 -174 148 -94 375 -61 470 68 l35 47
3 -80 3 -80 49 0 50 0 0 390 0 390 -50 0 -50 0 0 -82 0 -81 -29 41 c-80 110
-250 160 -395 116z m235 -89 c113 -40 189 -159 189 -296 0 -66 -34 -167 -70
-212 -53 -63 -111 -90 -205 -95 -99 -5 -165 19 -221 80 -60 67 -78 119 -79
228 0 108 20 168 78 229 71 74 203 103 308 66z"/>
<path d="M6170 1902 c-25 -9 -66 -38 -92 -64 l-48 -47 0 59 0 60 -50 0 -50 0
0 -390 0 -390 50 0 50 0 0 243 c0 272 8 321 62 383 87 98 244 109 341 23 72
-63 77 -88 77 -391 l0 -258 50 0 50 0 0 263 c0 212 -3 274 -16 318 -27 91 -86
156 -172 189 -66 25 -187 26 -252 2z"/>
<path d="M7064 1911 c-104 -27 -190 -99 -237 -199 -31 -64 -32 -72 -32 -192 0
-119 1 -128 31 -190 38 -79 97 -140 172 -177 50 -24 69 -27 157 -28 129 0 181
22 261 108 l56 61 -4 -130 c-5 -151 -26 -213 -89 -268 -105 -89 -302 -76 -394
26 -20 21 -40 50 -45 64 -8 21 -16 24 -60 24 -49 0 -51 -1 -45 -22 32 -104
116 -185 226 -219 99 -30 230 -24 310 14 62 30 126 93 157 154 37 71 42 142
42 565 l0 408 -50 0 -50 0 -1 -82 c0 -81 0 -82 -17 -58 -61 91 -158 143 -277
146 -44 2 -94 -1 -111 -5z m231 -105 c66 -30 112 -78 144 -146 36 -79 36 -201
-1 -281 -50 -110 -126 -161 -249 -167 -98 -5 -161 20 -223 89 -58 65 -80 135
-74 243 9 178 116 286 283 286 52 0 83 -6 120 -24z"/>
<path d="M8019 1907 c-131 -37 -216 -129 -254 -274 -52 -198 35 -403 203 -481
50 -23 70 -26 167 -27 99 0 116 3 166 26 87 41 157 120 183 207 7 21 5 22 -42
22 l-49 0 -34 -57 c-28 -47 -44 -63 -93 -88 -49 -25 -70 -29 -130 -29 -150 1
-254 89 -280 237 l-7 37 327 0 326 0 -4 93 c-3 76 -9 102 -33 150 -35 70 -98
130 -173 165 -68 31 -198 40 -273 19z m247 -105 c74 -38 121 -107 131 -193 l6
-49 -277 0 -277 0 7 38 c29 162 155 253 320 231 28 -4 68 -16 90 -27z"/>
</g>
</svg>
