<svg width="458" height="203" viewBox="0 0 458 203" fill="none" xmlns="http://www.w3.org/2000/svg">
<path d="M196 185V67.1716H206.325V83.5181H207.578C208.851 80.9517 210.602 78.3296 212.83 75.6517C215.058 72.9366 218.002 70.6492 221.663 68.7895C225.363 66.9298 230.018 66 235.628 66C243.188 66 249.793 67.8597 255.442 71.579C261.132 75.2611 265.548 80.431 268.692 87.0886C271.875 93.709 273.466 101.427 273.466 110.241C273.466 119.093 271.875 126.848 268.692 133.506C265.548 140.163 261.132 145.352 255.442 149.071C249.793 152.791 243.228 154.65 235.748 154.65C230.217 154.65 225.582 153.72 221.842 151.861C218.142 150.001 215.138 147.714 212.83 144.999C210.562 142.246 208.812 139.568 207.578 136.965H206.623V185H196ZM206.504 110.074C206.504 116.992 207.598 123.129 209.786 128.485C212.014 133.803 215.197 137.988 219.335 141.038C223.513 144.05 228.566 145.556 234.494 145.556C240.582 145.556 245.714 143.994 249.892 140.87C254.109 137.709 257.312 133.45 259.501 128.094C261.729 122.738 262.843 116.732 262.843 110.074C262.843 103.491 261.749 97.5585 259.56 92.2771C257.412 86.9956 254.229 82.8114 250.011 79.7243C245.794 76.6001 240.622 75.038 234.494 75.038C228.526 75.038 223.453 76.5443 219.276 79.557C215.098 82.5324 211.915 86.6609 209.727 91.9423C207.578 97.1866 206.504 103.231 206.504 110.074Z" fill="black"/>
<path d="M322.375 154.818C316.844 154.818 311.791 153.813 307.216 151.805C302.64 149.759 299 146.821 296.294 142.99C293.589 139.122 292.236 134.436 292.236 128.931C292.236 124.691 293.091 121.12 294.802 118.219C296.513 115.318 298.94 112.938 302.083 111.078C305.226 109.219 308.946 107.749 313.244 106.671C317.541 105.592 322.275 104.755 327.448 104.16C332.58 103.565 336.917 103.045 340.458 102.598C344.039 102.152 346.764 101.445 348.634 100.478C350.504 99.5112 351.439 97.9491 351.439 95.7918V93.7834C351.439 87.9441 349.569 83.3507 345.829 80.0033C342.129 76.6187 336.798 74.9264 329.835 74.9264C323.23 74.9264 317.839 76.284 313.661 78.9991C309.523 81.7142 306.619 84.9128 304.948 88.5949L294.862 85.1917C296.931 80.5054 299.795 76.7675 303.456 73.978C307.116 71.1513 311.214 69.1242 315.75 67.8969C320.286 66.6323 324.881 66 329.536 66C333.038 66 336.678 66.4277 340.458 67.2832C344.278 68.1386 347.819 69.6263 351.081 71.7464C354.344 73.8292 356.99 76.7489 359.019 80.5054C361.048 84.2247 362.063 88.9483 362.063 94.676V152.865H351.439V139.308H350.783C349.51 141.837 347.62 144.292 345.113 146.672C342.607 149.053 339.463 151.005 335.684 152.53C331.904 154.055 327.468 154.818 322.375 154.818ZM323.807 145.724C329.457 145.724 334.351 144.552 338.489 142.209C342.627 139.866 345.81 136.76 348.038 132.892C350.305 128.987 351.439 124.691 351.439 120.005V107.619C350.644 108.326 349.311 108.958 347.441 109.516C345.611 110.074 343.482 110.576 341.055 111.022C338.668 111.432 336.28 111.785 333.893 112.083C331.506 112.38 329.357 112.64 327.448 112.864C322.275 113.459 317.859 114.388 314.198 115.653C310.538 116.918 307.733 118.666 305.783 120.897C303.834 123.092 302.859 125.918 302.859 129.377C302.859 134.584 304.848 138.62 308.827 141.484C312.806 144.311 317.799 145.724 323.807 145.724Z" fill="black"/>
<path d="M394.44 185C392.331 185 390.361 184.814 388.531 184.442C386.701 184.07 385.249 183.661 384.174 183.215L387.039 174.456C390.66 175.497 393.883 175.869 396.708 175.572C399.532 175.311 402.039 174.121 404.227 172.001C406.416 169.918 408.365 166.719 410.076 162.405L413.418 153.702L379.698 67.1716H391.217L418.431 139.754H419.267L446.482 67.1716H458L419.207 166.422C417.576 170.55 415.567 173.991 413.18 176.743C410.792 179.533 408.027 181.597 404.884 182.936C401.78 184.312 398.299 185 394.44 185Z" fill="black"/>
<path d="M204.37 6H173.073L129.751 74.164L98.3104 25.2303L8.43145 25.2086V48.2962H68.5376L30.394 91.4917L36.6318 104.727C36.6318 104.727 36.8925 104.632 38.0262 104.211C38.0262 104.211 38.0306 104.211 38.0349 104.211C43.569 101.965 49.3507 101.222 55.2757 101.743C67.9468 102.855 77.2514 110.566 78.2982 123.932C79.3451 137.311 71.1656 148.331 58.3208 150.36C50.011 151.672 42.0791 150.725 34.9681 145.812C30.0205 142.397 26.8147 137.619 24.6167 132.116C24.6167 132.111 24.6124 132.102 24.6124 132.102L23.8087 130.322L0 138.753C0 138.753 1.61592 143.905 2.45429 145.777C9.49135 161.476 22.2059 170.064 38.3868 174.112C44.9634 175.758 51.7137 175.767 58.4424 175.237C61.0618 175.033 66.2353 174.147 66.2353 174.147L51.5661 197.174L83.3284 197.122L129.977 123.454L162.183 173.152L193.354 173.161L145.585 98.8067L204.37 6Z" fill="black"/>
</svg>
